# This file uses centimeters as units for non-parametric coordinates.

mtllib nav-jewel.mtl
g default
v -0.005310 0.000000 -0.206083
v -0.194690 0.000000 -0.206083
v -0.194690 0.000000 0.006083
v -0.005310 0.000000 0.006083
v -0.103715 -0.122494 -0.100003
v -0.103715 0.122494 -0.100003
vt 0.083333 0.500000
vt 0.000000 0.500000
vt 0.041667 0.000000
vt 0.250000 0.500000
vt 0.208333 0.000000
vt 0.625000 0.500000
vt 0.291667 0.000000
vt 0.750000 0.500000
vt 0.708333 0.000000
vt 0.041667 1.000000
vt 0.208333 1.000000
vt 0.291667 1.000000
vt 0.708333 1.000000
vn 0.779594 -0.626285 0.000000
vn 0.779594 -0.626285 0.000000
vn 0.779594 -0.626285 0.000000
vn 0.000000 -0.654643 -0.755938
vn 0.000000 -0.654643 -0.755938
vn 0.000000 -0.654643 -0.755938
vn -0.802807 -0.596238 0.000000
vn -0.802807 -0.596238 0.000000
vn -0.802808 -0.596238 0.000000
vn 0.000000 -0.654665 0.755919
vn 0.000000 -0.654665 0.755919
vn 0.000000 -0.654665 0.755919
vn 0.779594 0.626285 0.000000
vn 0.779594 0.626285 0.000000
vn 0.779594 0.626285 0.000000
vn 0.000000 0.654643 -0.755938
vn 0.000000 0.654643 -0.755938
vn 0.000000 0.654643 -0.755938
vn -0.802807 0.596238 0.000000
vn -0.802807 0.596238 0.000000
vn -0.802808 0.596238 0.000000
vn 0.000000 0.654665 0.755919
vn 0.000000 0.654665 0.755919
vn 0.000000 0.654665 0.755919
s off
g polySurface1808 polySurface1765
usemtl polySurface1765SG
f 1/1/1 4/2/2 5/3/3
f 2/4/4 1/1/5 5/5/6
f 3/6/7 2/4/8 5/7/9
f 4/8/10 3/6/11 5/9/12
f 4/2/13 1/1/14 6/10/15
f 1/1/16 2/4/17 6/11/18
f 2/4/19 3/6/20 6/12/21
f 3/6/22 4/8/23 6/13/24
